<?xml version="1.0" encoding="utf-8" ?>	<!-- Generator: Assembly 1.8 - http://assemblyapp.co -->	<svg version="1.1" xmlns="http://www.w3.org/2000/svg" xmlns:xlink="http://www.w3.org/1999/xlink" width="2048.00" height="2048.00" viewBox="0 0 2048.0 2048.0">		<g id="document" transform="matrix(1,0,0,1,1024.0,1024.0)">			<path d="M-316.272,-62.7527 L-273.201,-62.7527 L-273.201,-122.032 L-235.457,-122.032 L-235.457,-62.7527 L-192.386,-62.7527 L-192.386,-225.271 L-235.457,-225.271 L-235.457,-160.663 L-273.201,-160.663 L-273.201,-225.271 L-316.272,-225.271 L-316.272,-62.7527 Z M-176.474,-94.5014 C-176.474,-82.0683 -168.038,-62.5307 -140.063,-61.4206 C-123.856,-60.7545 -117.195,-70.0793 -115.197,-74.7417 L-106.761,-62.7527 L-72.1256,-62.7527 L-72.1256,-142.013 C-72.1256,-175.094 -90.7751,-182.865 -121.858,-182.865 C-143.838,-182.865 -157.159,-181.311 -172.478,-173.984 L-172.478,-148.896 C-172.478,-148.896 -134.513,-151.338 -128.962,-151.338 C-120.082,-151.338 -115.197,-151.56 -115.197,-139.793 C-114.975,-139.571 -115.197,-138.239 -115.197,-138.239 C-115.197,-138.017 -137.843,-138.239 -137.843,-138.239 C-168.704,-138.239 -176.474,-120.256 -176.474,-103.604 L-176.474,-94.5014 Z M-133.403,-101.606 L-133.403,-102.938 C-133.403,-106.49 -133.847,-112.263 -126.742,-112.929 L-115.197,-114.039 L-115.197,-100.718 C-115.197,-100.718 -114.975,-93.3913 -124.078,-93.3913 C-128.296,-93.3913 -133.403,-92.5032 -133.403,-101.606 Z M-54.8821,-62.7527 L-11.8104,-62.7527 L-11.8104,-142.457 C-9.14618,-148.452 -3.81773,-150.672 4.39698,-150.672 C9.28139,-150.672 11.7236,-148.452 11.7236,-139.127 L11.7236,-62.7527 L54.7953,-62.7527 L54.7953,-138.239 C54.7953,-163.105 51.243,-182.643 20.6044,-182.643 C2.62082,-182.643 -4.48378,-175.982 -11.8104,-169.1 L-18.915,-180.645 L-54.8821,-180.645 L-54.8821,-62.7527 Z M70.7066,-121.144 C70.7066,-76.5178 82.4736,-61.4206 108.894,-61.4206 C121.993,-61.4206 129.32,-66.305 137.978,-73.6316 L144.417,-62.7527 L181.272,-62.7527 L181.272,-237.038 L138.2,-237.038 L138.2,-175.76 C130.208,-179.979 118.885,-182.421 108.894,-182.421 C76.9232,-182.421 70.7066,-164.881 70.7066,-121.144 Z M113.778,-123.364 C113.778,-148.452 117.331,-151.56 123.547,-151.56 C129.098,-151.56 135.758,-150.672 137.978,-148.23 L137.978,-101.162 C135.758,-97.3876 130.43,-96.2775 123.547,-96.2775 C117.109,-96.2775 113.778,-99.1638 113.778,-123.364 Z M194.963,-180.645 L213.391,-97.3876 C217.831,-77.4059 229.376,-62.7527 255.352,-62.7527 L242.253,-2.80756 L274.224,-2.80756 L289.987,-25.4535 L321.736,-180.645 L277.998,-180.645 L262.679,-97.3876 C259.127,-97.6096 254.464,-99.1638 253.132,-106.046 L239.589,-180.645 L194.963,-180.645 Z M-320.713,70.7547 L-271.425,152.68 L-320.047,233.273 L-272.313,233.273 L-249.667,189.757 L-227.465,233.273 L-179.731,233.273 L-228.131,152.68 L-178.621,70.7547 L-226.355,70.7547 L-249.667,115.825 L-272.979,70.7547 L-320.713,70.7547 Z M-175.586,174.216 C-175.586,220.395 -158.713,234.383 -136.733,234.383 C-118.305,234.161 -94.5495,237.713 -77.898,225.946 L-77.898,200.636 C-77.898,200.636 -92.1073,202.412 -112.533,202.412 C-128.518,202.412 -132.515,201.746 -132.515,174.66 C-132.515,145.797 -127.63,146.241 -112.533,146.241 C-92.7733,146.241 -79.4522,147.573 -79.4522,147.573 L-79.4522,122.263 C-102.098,113.16 -125.188,114.27 -136.733,114.27 C-159.379,114.27 -175.586,128.036 -175.586,174.216 Z M-67.5372,175.992 C-67.5372,218.175 -53.772,234.383 -12.2544,234.383 C30.1512,234.383 43.0283,219.729 43.0283,175.992 C43.0283,129.146 29.0411,114.27 -12.2544,114.27 C-53.1059,114.27 -67.5372,127.814 -67.5372,175.992 Z M-24.4655,175.992 C-24.4655,150.682 -25.3536,146.241 -12.2544,146.241 C0.178616,146.241 -0.0434033,150.46 -0.0434033,175.992 C-0.0434033,200.636 -0.0434033,202.412 -12.2544,202.412 C-23.5774,202.412 -24.4655,199.304 -24.4655,175.992 Z M59.1616,174.882 C59.1616,219.507 70.9287,234.605 97.3489,234.605 C110.448,234.605 117.775,229.72 126.433,222.394 L132.872,233.273 L169.727,233.273 L169.727,58.9877 L126.655,58.9877 L126.655,120.265 C118.663,116.047 107.34,113.604 97.3489,113.604 C65.3782,113.604 59.1616,131.144 59.1616,174.882 Z M102.233,172.661 C102.233,147.573 105.786,144.465 112.002,144.465 C117.553,144.465 124.213,145.353 126.433,147.795 L126.433,194.863 C124.213,198.638 118.885,199.748 112.002,199.748 C105.564,199.748 102.233,196.861 102.233,172.661 Z M186.971,173.772 C186.971,214.623 195.851,234.383 225.824,234.383 C244.251,234.383 274.668,235.271 290.209,228.166 L290.209,200.192 C273.558,202.634 272.892,202.634 256.907,202.634 C240.477,202.634 230.042,205.964 230.042,189.979 L257.573,189.979 C278.886,189.979 292.43,182.652 292.43,158.452 C292.43,119.377 277.776,114.492 238.479,114.492 C200.292,114.492 186.971,124.705 186.971,173.772 Z M230.042,162.671 C229.598,145.797 232.262,144.243 241.587,144.243 C249.136,144.243 249.358,147.573 249.358,155.566 C249.358,159.784 246.694,162.671 242.919,162.671 L230.042,162.671 Z " fill="#3770ca" fill-opacity="1.00" stroke-width="10.75" stroke="#e7bf87" stroke-linecap="square" stroke-linejoin="miter" />			<path d="M-0.746334,596.42 L-0.746334,579.904 C68.9889,579.904 136.889,568.893 199.284,545.036 C272.689,517.509 338.754,477.136 397.479,423.917 C474.554,352.347 529.609,262.425 560.806,161.492 L577.322,166.998 C546.125,269.765 489.236,363.357 410.325,436.763 C351.6,491.817 281.865,534.025 206.624,561.552 C140.559,585.409 70.8241,596.42 -0.746334,596.42 Z M626.871,-3.67027 L558.971,-3.67027 C558.971,-108.273 531.444,-209.206 476.39,-297.292 L533.279,-332.16 C593.838,-234.898 626.871,-121.119 626.871,-3.67027 Z M-406.312,-341.336 L-509.08,-427.587 C-450.355,-499.158 -378.785,-554.212 -296.204,-596.42 C-241.149,-623.947 -182.425,-642.298 -123.701,-655.144 C-83.3275,-662.485 -41.1194,-666.155 -0.746328,-666.155 C87.3403,-666.155 173.592,-649.639 252.503,-614.771 L199.284,-491.817 C135.054,-519.344 67.1538,-532.19 -2.58147,-532.19 C-35.614,-532.19 -68.6464,-528.52 -99.8438,-523.014 C-147.557,-513.839 -193.436,-499.158 -237.479,-477.136 C-301.709,-442.268 -358.598,-396.39 -406.312,-341.336 Z M-353.093,493.652 C-404.477,456.949 -450.355,412.906 -488.893,361.522 L-461.366,341.336 C-424.663,389.049 -382.455,431.257 -332.906,466.125 L-353.093,493.652 Z M615.86,556.047 L566.311,510.168 C656.233,411.071 718.628,289.952 747.99,159.657 L814.055,174.338 C782.858,315.644 714.958,447.774 615.86,556.047 Z M206.624,-765.253 C140.559,-783.604 70.8241,-792.78 1.08881,-792.78 C-68.6464,-792.78 -138.382,-783.604 -204.447,-765.253 L-208.117,-781.769 C-140.217,-800.12 -68.6464,-809.296 2.92395,-809.296 C74.4943,-809.296 144.23,-800.12 213.965,-781.769 L206.624,-765.253 Z M-53.9653,809.296 C-259.501,796.45 -452.19,704.693 -593.496,554.212 C-736.637,401.895 -813.713,203.7 -813.712,-3.67028 C-813.712,-31.1974 -811.877,-62.3947 -810.042,-89.9218 C-797.196,-214.711 -756.823,-332.16 -688.923,-436.763 L-661.396,-418.411 C-725.626,-317.479 -764.164,-205.535 -777.01,-86.2515 C-780.68,-58.7244 -780.68,-31.1974 -780.68,-3.67028 C-780.68,196.36 -705.439,385.379 -567.804,532.19 C-432.004,677.166 -248.49,763.417 -50.2951,776.263 L-53.9653,809.296 Z " fill="#f3804b" fill-opacity="1.00" />			<path d="M265.556,-534.494 L258.25,-519.681 C195.708,-550.528 129.942,-570.687 63.4302,-576.89 C-14.5798,-584.672 -91.6885,-577.686 -167.896,-555.932 C-268.679,-525.837 -357.83,-469.543 -430.455,-392.821 L-442.833,-405.064 C-369.396,-483.432 -276.976,-542.206 -173.735,-573.135 C-96.7155,-596.535 -15.5033,-603.543 64.1525,-594.95 C133.956,-587.123 201.368,-566.152 265.556,-534.494 Z M-562.762,-273.918 L-501.866,-243.883 C-548.135,-150.07 -568.093,-47.3724 -557.681,55.9805 L-624.126,62.0876 C-635.416,-51.9297 -614.714,-168.584 -562.762,-273.918 Z M214.489,485.928 L268.504,608.74 C184.179,646.952 95.6392,664.67 2.90611,665.996 C-58.6454,666.332 -119.43,656.814 -177.779,642.36 C-217.235,631.085 -256.713,615.706 -292.921,597.848 C-371.922,558.884 -441.971,505.92 -497.319,439.744 L-395.203,353.013 C-349.775,406.112 -294.561,447.667 -232.018,478.513 C-202.393,493.124 -171.144,504.444 -140.73,513.306 C-93.8791,526.182 -46.239,533.309 3.00215,533.04 C76.0298,530.18 147.345,514.198 214.489,485.928 Z M536.101,-286.473 C565.95,-230.827 587.614,-171.033 599.448,-107.903 L565.832,-101.975 C554.02,-161.001 534.835,-217.526 505.821,-270.714 L536.101,-286.473 Z M-305.306,-771.03 L-281.162,-707.967 C-405.643,-658.867 -515.176,-577.84 -599.143,-473.973 L-651.9,-516.362 C-561.416,-629.293 -442.075,-717.759 -305.306,-771.03 Z M-522.736,594.997 C-471.603,640.678 -413.119,679.754 -350.577,710.6 C-288.035,741.446 -221.434,764.063 -154.066,776.827 L-158.08,793.263 C-227.094,779.687 -295.341,756.258 -359.529,724.6 C-423.717,692.943 -482.2,653.867 -536.625,606.563 L-522.736,594.997 Z M407.448,-701.872 C586.1,-599.436 718.327,-431.911 778.494,-234.448 C839.496,-34.5265 820.953,177.318 729.227,363.299 C717.051,387.986 701.605,415.154 687.783,439.03 C621.064,545.265 532.904,632.741 425.739,696.52 L409.168,667.885 C511.419,605.775 595.498,522.425 659.782,421.127 C675.249,398.063 687.426,373.375 699.602,348.687 C788.081,169.29 804.211,-33.5135 745.712,-226.062 C688.047,-416.152 561.614,-574.681 389.545,-673.87 L407.448,-701.872 Z " fill="#e55a5a" fill-opacity="1.00" />		</g>	</svg>